<?xml version="1.0" encoding="iso-8859-1"?>
<!-- Uploaded to: SVG Repo, www.svgrepo.com, Generator: SVG Repo Mixer Tools -->
<svg height="800px" width="800px" version="1.1" id="Layer_1" xmlns="http://www.w3.org/2000/svg" xmlns:xlink="http://www.w3.org/1999/xlink" 
	 viewBox="0 0 512 512" xml:space="preserve">
<path style="fill:#00ABD5;" d="M504.082,39.588v432.825c0,17.524-14.146,31.67-31.67,31.67H39.588
	c-17.524,0-31.67-14.146-31.67-31.67V39.588c0-17.524,14.146-31.67,31.67-31.67h432.825
	C489.937,7.918,504.082,22.064,504.082,39.588z"/>
<path style="fill:#009DD3;" d="M63.932,7.918H39.588c-17.524,0-31.67,14.146-31.67,31.67v432.825c0,17.524,14.146,31.67,31.67,31.67
	h432.825c17.524,0,31.67-14.146,31.67-31.67v-28.682C280.266,406.241,103.592,230.986,63.932,7.918z"/>
<g>
	<polygon style="fill:#FFFFFF;" points="58.062,87.093 42.227,87.093 42.227,42.227 87.093,42.227 87.093,58.062 58.062,58.062 	"/>
	<polygon style="fill:#FFFFFF;" points="469.773,87.093 453.938,87.093 453.938,58.062 424.907,58.062 424.907,42.227 
		469.773,42.227 	"/>
	<polygon style="fill:#FFFFFF;" points="87.093,469.773 42.227,469.773 42.227,424.907 58.062,424.907 58.062,453.938 
		87.093,453.938 	"/>
	<polygon style="fill:#FFFFFF;" points="469.773,469.773 424.907,469.773 424.907,453.938 453.938,453.938 453.938,424.907 
		469.773,424.907 	"/>
</g>
<path style="fill:#FFD248;" d="M403.794,400.182c0,0,0,8.556,0,19.446H256H108.206c0-10.89,0-19.446,0-19.446
	s0.7-42.549,73.897-66.119c0,0,26.525-13.846,35.004-23.259c1.4,1.556,17.035,19.368,38.893,19.368
	c22.869,0,38.893-19.446,38.893-19.446c8.479,9.49,35.004,23.336,35.004,23.336C403.561,357.4,403.794,400.182,403.794,400.182z"/>
<path style="fill:#FFE1B2;" d="M171.446,217.151c-0.623-4.979-1.011-10.112-1.011-15.324v-42.782c0,0,81.52-3.889,81.675-27.148
	c0,0,38.426,27.148,89.454,27.148v42.782c0,5.212-0.388,10.346-1.011,15.324v0.078c-4.201,30.415-20.691,55.85-45.661,68.763
	c-0.155,0.155-0.389,0.233-0.545,0.311c-11.202,5.678-24.114,8.868-38.348,8.868c-14.235,0-27.148-3.189-38.348-8.868
	c-0.155-0.078-0.388-0.155-0.545-0.311c-24.97-12.913-41.46-38.348-45.661-68.763v-0.078H171.446z"/>
<path style="fill:#FFD7A3;" d="M217.107,310.728v-24.736c0.155,0.155,0.388,0.233,0.545,0.311
	c11.201,5.678,24.114,8.868,38.348,8.868c14.235,0,27.148-3.189,38.348-8.868c0.155-0.078,0.389-0.155,0.545-0.311v24.736
	c0,0-16.024,19.447-38.893,19.447c-21.858,0-37.493-17.813-38.893-19.368L217.107,310.728L217.107,310.728z"/>
<path style="fill:#A97C50;" d="M256,61.813c89.454,0,85.565,97.232,85.565,97.232c-51.028,0-89.454-27.148-89.454-27.148
	c-0.155,23.259-81.675,27.148-81.675,27.148S166.391,61.813,256,61.813z"/>
<path style="fill:#FDC147;" d="M217.107,310.806c-8.479,9.411-35.004,23.257-35.004,23.257
	c-73.197,23.569-73.897,66.119-73.897,66.119s0,8.556,0,19.446H256v-89.454C234.142,330.175,218.507,312.361,217.107,310.806z"/>
<path style="fill:#8A6640;" d="M170.435,159.045c0,0,81.52-3.889,81.675-27.148c0,0,1.354,0.956,3.889,2.509V61.813
	C166.391,61.813,170.435,159.045,170.435,159.045z"/>
<g>
	<path style="fill:#231F20;" d="M472.412,0H39.588C17.758,0,0,17.758,0,39.588v432.825C0,494.242,17.758,512,39.588,512h432.825
		C494.242,512,512,494.242,512,472.412V39.588C512,17.758,494.242,0,472.412,0z M496.165,472.412
		c0,13.097-10.656,23.753-23.753,23.753H39.588c-13.097,0-23.753-10.656-23.753-23.753V39.588c0-13.097,10.656-23.753,23.753-23.753
		h432.825c13.097,0,23.753,10.656,23.753,23.753V472.412z"/>
	<path style="fill:#231F20;" d="M332.96,326.73c-8.847-4.661-23.377-13.244-30.151-19.299v-16.787
		c24.696-14.571,41.211-40.648,45.587-72.332l0.074-0.617v-0.058c0.681-5.58,1.011-10.757,1.011-15.811c0,0,0.056-44.779,0-47.155
		v-3.545h-0.137c-0.807-15.274-5.261-48.428-27.861-71.948C305.363,62.401,283.331,53.894,256,53.894
		c-27.403,0-49.474,8.523-65.601,25.334c-22.741,23.707-27.039,57.163-27.774,72.265l-0.109,0.005v2.937
		c-0.06,2.484,0,47.392,0,47.392c0,5.052,0.33,10.229,1.011,15.811l0.074,0.675c4.376,31.683,20.892,57.76,45.587,72.331v16.86
		c-7.422,6.621-23.406,15.665-30.169,19.235c-77.057,25.069-78.699,71.35-78.731,73.313l0,27.494h311.423v-27.407
		C411.7,398.163,410.554,351.576,332.96,326.73z M217.194,310.728l-0.043,0.039h-0.087l-0.043-0.039H217.194z M225.025,298.006
		c9.714,3.371,20.085,5.082,30.975,5.082c10.898,0,21.276-1.714,30.975-5.079v9.632c-4.32,4.377-16.024,14.616-30.975,14.616
		c-14.434,0-26.155-9.857-30.975-14.62L225.025,298.006L225.025,298.006z M201.893,90.123C214.911,76.591,233.115,69.73,256,69.73
		c22.817,0,40.985,6.847,53.999,20.352c18.434,19.129,22.548,47.252,23.435,60.793c-43.725-2.604-76.418-25.207-76.755-25.445
		l-12.383-8.748l-0.102,15.163c-0.015,2.225-6.209,9.178-34.321,14.543c-11.741,2.241-23.609,3.495-31.296,4.145
		C179.488,136.875,183.645,109.089,201.893,90.123z M179.364,216.674l-0.061-0.506c-0.641-5.112-0.95-9.803-0.95-14.341v-35.38
		c7.928-0.631,21.053-1.95,34.341-4.477c22.263-4.234,36.528-10.326,43.1-18.469c13.44,7.689,42.099,21.428,77.854,23.257v35.068
		c0,4.538-0.31,9.23-0.95,14.341l-0.034,0.314c-3.982,28.163-19.062,50.921-41.408,62.477l-1.092,0.565l-0.04,0.04
		c-10.321,5.103-21.797,7.69-34.124,7.69c-12.304,0-23.763-2.577-34.123-7.691l-1.132-0.604
		C198.449,267.43,183.389,244.749,179.364,216.674z M395.876,411.711H116.124v-11.375c0.124-2.332,3.098-37.706,68.406-58.736
		l1.237-0.517c2.344-1.222,19.868-10.476,31.096-19.389c7.758,6.894,21.633,16.4,39.137,16.4c17.789,0,31.758-9.798,39.169-16.422
		c11.237,8.954,28.723,18.189,31.064,19.412l1.273,0.529c65.976,20.901,68.293,56.636,68.371,58.669V411.711z"/>
	<polygon style="fill:#231F20;" points="271.556,217.245 263.918,217.245 263.918,194.048 248.082,194.048 248.082,233.08 
		271.556,233.08 	"/>
</g>
</svg>