<!DOCTYPE svg PUBLIC "-//W3C//DTD SVG 1.1//EN" "http://www.w3.org/Graphics/SVG/1.1/DTD/svg11.dtd">
<!-- Uploaded to: SVG Repo, www.svgrepo.com, Transformed by: SVG Repo Mixer Tools -->
<svg fill="#10a206" height="800px" width="800px" version="1.1" id="Layer_1" xmlns="http://www.w3.org/2000/svg" xmlns:xlink="http://www.w3.org/1999/xlink" viewBox="-46.2 -46.2 422.40 422.40" xml:space="preserve" stroke="#10a206">
<g id="SVGRepo_bgCarrier" stroke-width="0"/>
<g id="SVGRepo_tracerCarrier" stroke-linecap="round" stroke-linejoin="round" stroke="#030303" stroke-width="14.52"> <path id="XMLID_2_" d="M240,75H90c-49.626,0-90,40.374-90,90s40.374,90,90,90h150c49.626,0,90-40.374,90-90S289.626,75,240,75z M240,225c-33.084,0-60-26.916-60-60s26.916-60,60-60s60,26.916,60,60S273.084,225,240,225z"/> </g>
<g id="SVGRepo_iconCarrier"> <path id="XMLID_2_" d="M240,75H90c-49.626,0-90,40.374-90,90s40.374,90,90,90h150c49.626,0,90-40.374,90-90S289.626,75,240,75z M240,225c-33.084,0-60-26.916-60-60s26.916-60,60-60s60,26.916,60,60S273.084,225,240,225z"/> </g>
</svg>